<?xml version="1.0" encoding="UTF-8" standalone="no"?>
<svg
   width="34.424706mm"
   height="35.451218mm"
   viewBox="0 0 34.424706 35.451218"
   version="1.1"
   xmlns="http://www.w3.org/2000/svg">
  <path
     style="fill:currentColor;fill-opacity:1;stroke-width:0.586159"
     d="m 374.93555,35.868241 c -2.53221,0 -4.9239,0.422129 -7.17475,1.266197 -2.25085,0.84407 -4.19746,2.040479 -5.83868,3.587939 -1.64124,1.54746 -2.95352,3.422946 -3.93826,5.626904 -0.93786,2.157067 -1.40703,4.571684 -1.40703,7.24457 0,2.672886 0.46917,5.11159 1.40703,7.315549 0.98474,2.157066 2.29702,4.00961 3.93826,5.557069 1.64122,1.54746 3.58783,2.742725 5.83868,3.586794 2.25085,0.844068 4.64254,1.266197 7.17475,1.266197 0.75028,0 1.6404,-0.09405 2.67205,-0.281631 1.03165,-0.140679 2.11106,-0.397628 3.23648,-0.772769 1.12543,-0.375143 2.22663,-0.868387 3.30515,-1.477994 1.12366,-0.608643 2.10709,-1.333981 2.95028,-2.176348 10e-4,-0.0013 0.003,-0.0022 0.005,-0.0034 1.37267,-1.264131 3.92982,-5.436821 3.87071,-8.459246 l -8.65156,0.0092 c -0.0602,1.168293 -0.53496,1.958678 -0.84491,2.40188 l -10e-4,-0.0011 c -0.79717,1.031641 -1.75959,1.828864 -2.88501,2.391578 -1.12543,0.51582 -2.34364,0.773914 -3.65663,0.773914 -1.54746,0 -2.93086,-0.282183 -4.15008,-0.844894 -1.21917,-0.562713 -2.2745,-1.312907 -3.16547,-2.250763 -0.84408,-0.937854 -1.5002,-2.016115 -1.96913,-3.235326 -0.42214,-1.21921 -0.63309,-2.485594 -0.63309,-3.798591 0,-1.312996 0.21105,-2.579381 0.63309,-3.79859 0.46893,-1.219209 1.12505,-2.297473 1.96913,-3.235327 0.89097,-0.937855 1.9463,-1.68805 3.16547,-2.250763 1.21922,-0.562711 2.60262,-0.843749 4.15008,-0.843749 1.12541,0 2.22662,0.305123 3.30514,0.914731 1.05237,0.594812 2.05934,1.397254 3.0224,2.393867 l -0.007,0.0069 -3.28113,3.631443 h 13.02604 l -0.57242,-12.831405 -3.33494,3.344088 c -1.62425,-1.738915 -3.51807,-3.005862 -5.68757,-3.790577 -2.15707,-0.844068 -4.3136,-1.266196 -6.47065,-1.266196 z"
     transform="translate(-356.57685,-35.868241)" />
</svg>
